<svg fill="none" xmlns="http://www.w3.org/2000/svg" viewBox="0 0 24 24"><path d="M13.7072 23.9765c.5167 0 .9356-.4189.9356-.9356 0-.5168-.4189-.9357-.9356-.9357-.5168 0-.9357.4189-.9357.9357 0 .5167.4189.9356.9357.9356ZM13.7072 20.7017c.5167 0 .9356-.4189.9356-.9357 0-.5168-.4189-.9357-.9356-.9357-.5168 0-.9357.4189-.9357.9357 0 .5168.4189.9357.9357.9357ZM17.4493 23.9765c.5168 0 .9357-.4189.9357-.9356 0-.5168-.4189-.9357-.9357-.9357-.5167 0-.9356.4189-.9356.9357 0 .5167.4189.9356.9356.9356ZM13.7072 17.3334c.5167 0 .9356-.4189.9356-.9357 0-.5167-.4189-.9357-.9356-.9357-.5168 0-.9357.419-.9357.9357 0 .5168.4189.9357.9357.9357ZM9.96497 23.9765c.51673 0 .93563-.4189.93563-.9356 0-.5168-.4189-.9357-.93563-.9357-.51676 0-.93567.4189-.93567.9357 0 .5167.41891.9356.93567.9356ZM9.96497 20.7017c.51673 0 .93563-.4189.93563-.9357 0-.5168-.4189-.9357-.93563-.9357-.51676 0-.93567.4189-.93567.9357 0 .5168.41891.9357.93567.9357ZM9.96497 17.3334c.51673 0 .93563-.4189.93563-.9357 0-.5167-.4189-.9357-.93563-.9357-.51676 0-.93567.419-.93567.9357 0 .5168.41891.9357.93567.9357ZM21.1935 17.3334c.5167 0 .9357-.4189.9357-.9357 0-.5167-.419-.9357-.9357-.9357-.5168 0-.9357.419-.9357.9357 0 .5168.4189.9357.9357.9357ZM21.1935 20.7017c.5167 0 .9357-.4189.9357-.9357 0-.5168-.419-.9357-.9357-.9357-.5168 0-.9357.4189-.9357.9357 0 .5168.4189.9357.9357.9357Z" fill="#0E9685"/><path d="M22.9728 9.66566c-.9798-1.39092-2.4759-2.15691-4.2125-2.15691h-2.3715c-.1678-1.91254-.9972-3.69281-2.3788-5.07436C12.4552.87964 10.3956.02338 8.21053.02338c-2.18508 0-4.24467.85626-5.79947 2.41106C.85622 3.98919 0 6.04883 0 8.23391V23.9766h1.87134V8.23391c0-3.49542 2.84377-6.33919 6.33919-6.33919 3.25027 0 5.93647 2.45892 6.29747 5.61403h-2.2974c-1.7723 0-3.29427.81497-4.28535 2.29477-.62437.93228-.95442 2.03778-.95442 3.19688v1.0581H24v-1.0877c0-1.2083-.3552-2.3512-1.0272-3.30514ZM8.92331 12.1871c.09877-.4841.2865-.9388.55674-1.3422.65095-.97201 1.56965-1.4648 2.73045-1.4648h6.5497c1.1429 0 2.0455.45867 2.6827 1.3633.3023.4291.5086.9189.611 1.4437H8.92331ZM21.1935 23.9765c.5167 0 .9357-.4189.9357-.9356 0-.5168-.419-.9357-.9357-.9357-.5168 0-.9357.4189-.9357.9357 0 .5167.4189.9356.9357.9356ZM17.4493 20.7017c.5168 0 .9357-.4189.9357-.9357 0-.5168-.4189-.9357-.9357-.9357-.5167 0-.9356.4189-.9356.9357 0 .5168.4189.9357.9356.9357Z" fill="#0E9685"/><path d="M17.4493 17.3334c.5168 0 .9357-.4189.9357-.9357 0-.5167-.4189-.9357-.9357-.9357-.5167 0-.9356.419-.9356.9357 0 .5168.4189.9357.9356.9357Z" fill="#0E9685"/></svg>