<svg fill="none" xmlns="http://www.w3.org/2000/svg" viewBox="0 0 24 24"><path d="M17.1562 2c-1.1938 0-2.2883.38956-3.253 1.15788-.9249.73659-1.5407 1.67477-1.9032 2.35699-.3625-.68226-.9783-1.6204-1.9032-2.35699C9.13205 2.38956 8.03755 2 6.84375 2 3.5123 2 1 4.80606 1 8.52717 1 12.5473 4.13427 15.2977 8.87914 19.4616c.80575.7071 1.71906 1.5086 2.66836 2.3634.1251.1129.2858.175.4525.175.1667 0 .3274-.0621.4525-.1749.9494-.855 1.8627-1.6564 2.6689-2.3639C19.8657 15.2977 23 12.5473 23 8.52717 23 4.80606 20.4877 2 17.1562 2Z" stroke="#3C3A4A" stroke-width="2" stroke-linejoin="round"/></svg>