<svg fill="none" xmlns="http://www.w3.org/2000/svg" viewBox="0 0 16 17"><g clip-path="url(#a)"><path d="M12.9917 7.05503c.7472 1.00421 1.1483 2.21021 1.1462 3.44697.0001 1.4661-.5623 2.8802-1.5784 3.9692-1.016 1.089-2.4138 1.7757-3.9233 1.9273 0 0-.22858.0442-.63618.0442-.33567 0-.64131-.0442-.64131-.0442-1.06662-.1077-2.08536-.4837-2.95464-1.0904-.86929-.6068-1.55874-1.423-1.99962-2.3675-.44087-.9444-.61776-1.984-.51304-3.01502.10473-1.03106.48742-2.01759 1.10991-2.86122L7.64238.75022c.04134-.05655.09614-.10268.15977-.13452a.4605.4605 0 0 1 .20592-.04847.46047.46047 0 0 1 .20592.04847c.06363.03184.11842.07797.15977.13452l4.61794 6.30481Z" fill="#0E9685"/><path d="M11.4331 8.46967H8.00081V5.01929L4.56689 10.363h3.43392v3.4504l3.43229-5.34373Z" fill="#fff"/></g><defs><clipPath id="a"><path fill="#fff" transform="translate(.5 .5)" d="M0 0h15v16H0z"/></clipPath></defs></svg>