<svg fill="none" xmlns="http://www.w3.org/2000/svg" viewBox="0 0 13 12"><path d="M4.08397 1.97265C4.48908 1.36499 5.17107 1 5.90139 1h1.19722c.73032 0 1.41231.36499 1.81742.97265l.01656.02484A1.12846 1.12846 0 0 0 9.87153 2.5C11.0471 2.5 12 3.45295 12 4.62847V8.5c0 1.38071-1.1193 2.5-2.5 2.5h-6C2.11929 11 1 9.88071 1 8.5V4.62847C1 3.45295 1.95295 2.5 3.12847 2.5c.37731 0 .72965-.18857.93894-.50251l.01656-.02484Z" fill="#fff"/><path fill-rule="evenodd" clip-rule="evenodd" d="M6.5 5C5.67157 5 5 5.67157 5 6.5S5.67157 8 6.5 8 8 7.32843 8 6.5 7.32843 5 6.5 5ZM4 6.5C4 5.11929 5.11929 4 6.5 4S9 5.11929 9 6.5 7.88071 9 6.5 9 4 7.88071 4 6.5Z" fill="#3C3A4A"/></svg>