<svg fill="none" xmlns="http://www.w3.org/2000/svg" viewBox="0 0 16 17"><path d="m12.7484 10.8349-.3954-.306-.0166.0214-.0141.0231.4261.2615Zm-9.49617.0008.42614-.2615-.01416-.0231-.01657-.0214-.39541.306ZM7.484 15.6551l-.32144.383.00081.0006.32063-.3836Zm1.032 0 .32063.3836.00171-.0014-.32234-.3822ZM13.5 7.16666c0 1.26693-.4278 2.43255-1.147 3.36224l.7909.6119c.85-1.0987 1.3561-2.47802 1.3561-3.97414h-1Zm-5.5-5.5c3.0376 0 5.5 2.46243 5.5 5.5h1c0-3.58985-2.9101-6.5-6.5-6.5v1Zm-5.5 5.5c0-3.03757 2.46243-5.5 5.5-5.5v-1c-3.58985 0-6.5 2.91015-6.5 6.5h1Zm1.14764 3.36304C2.928 9.59986 2.5 8.43395 2.5 7.16666h-1c0 1.49654.50637 2.87624 1.35682 3.97514l.79082-.6121Zm4.1578 4.7424c-.15247-.128-2.60297-2.2145-4.12707-4.6979l-.85229.5231c1.61418 2.6301 4.17276 4.8034 4.33648 4.9408l.64288-.766ZM8 15.3333c-.09198 0-.15287-.0264-.19537-.0619l-.64126.7673c.24113.2016.53589.2946.83663.2946v-1Zm.19537-.0619c-.0425.0355-.10339.0619-.19537.0619v1c.30074 0 .5955-.093.83663-.2946l-.64126-.7673Zm4.12693-4.698c-1.524 2.4835-3.97493 4.5698-4.12864 4.6995l.64468.7644c.16252-.1371 2.72206-2.3104 4.33626-4.9409l-.8523-.523Z" fill="#3C3A4A"/><path d="M10.1667 7.16667c0 1.19661-.97009 2.16666-2.16671 2.16666-1.19661 0-2.16666-.97005-2.16666-2.16666C5.83333 5.97005 6.80338 5 7.99999 5c1.19662 0 2.16671.97005 2.16671 2.16667Z" stroke="#3C3A4A"/></svg>