<svg fill="none" xmlns="http://www.w3.org/2000/svg" viewBox="0 0 24 24"><path d="M21.1875 11.8594h-.0469V5.29688c0-1.55082-1.2617-2.8125-2.8125-2.8125H5.625c-1.55081 0-2.8125 1.26168-2.8125 2.8125v6.56252C1.26169 11.8594 0 13.1211 0 14.6719v5.1562h1.875v1.6875H3.75v-1.6875h16.5v1.6875h1.875v-1.6875H24v-5.1562c0-1.5508-1.2617-2.8125-2.8125-2.8125Zm-16.5-6.56252c0-.51694.42056-.9375.9375-.9375h12.7031c.517 0 .9375.42056.9375.9375v6.56252h-1.7812v-1.4063c0-1.55079-1.2617-2.81248-2.8125-2.81248H9.23438c-1.55082 0-2.8125 1.26169-2.8125 2.81248v1.4063H4.6875V5.29688Zm10.9219 5.15622v1.4063H8.29688v-1.4063c0-.51691.42056-.93748.9375-.93748h5.43752c.5169 0 .9375.42057.9375.93748Zm6.5156 7.5H1.875v-3.2812c0-.517.42056-.9375.9375-.9375h18.375c.5169 0 .9375.4205.9375.9375v3.2812Z" fill="#0E9685"/></svg>